<?xml version="1.0" encoding="UTF-8"?>
<!-- Generator: visioncortex VTracer 0.6.4 -->
<svg version="1.1" xmlns="http://www.w3.org/2000/svg" width="100" height="100">
<path d="M0 0 C0.66 0 1.32 0 2 0 C2.31 0.57 2.63 1.14 2.95 1.72 C3.38 2.49 3.81 3.27 4.25 4.06 C4.93 5.29 4.93 5.29 5.62 6.54 C6.83 8.69 8.06 10.81 9.31 12.94 C11 16 11 16 11 18 C11.66 18 12.32 18 13 18 C13.66 19.98 14.32 21.96 15 24 C9.91 28.67 4.77 33.23 -0.62 37.56 C-4.87 40.98 -8.71 44.59 -12.44 48.57 C-14 50 -14 50 -16 50 C-16.38 50.88 -16.38 50.88 -16.78 51.78 C-18.11 54.2 -19.54 55.68 -21.56 57.56 C-26.49 62.36 -30.72 67.63 -35 73 C-35.77 73.97 -36.55 74.93 -37.35 75.93 C-39.24 78.28 -41.12 80.64 -43 83 C-44 80 -44 80 -43 77.91 C-42.48 77.11 -41.97 76.32 -41.44 75.5 C-36.88 68.25 -32.84 60.76 -29.05 53.07 C-27.32 49.66 -25.47 46.32 -23.63 42.97 C-19.67 35.74 -15.78 28.48 -11.91 21.2 C-3.13 4.7 -3.13 4.7 0 0 Z " fill="#0762AE" transform="translate(48,7)"/>
<path d="M0 0 C13 22.64 13 22.64 13 27 C11.8 27.09 10.6 27.17 9.37 27.26 C-6.59 28.57 -19.52 32.89 -33.64 40.33 C-36.2 41.6 -38.22 42.52 -41 43 C-39.54 38.75 -37.4 35.57 -34.69 32 C-33.93 30.99 -33.17 29.98 -32.39 28.94 C-30.07 26.09 -27.64 23.55 -25 21 C-24.21 20.2 -23.42 19.4 -22.61 18.57 C-17.58 13.49 -12.48 8.6 -7 4 C-6.05 3.2 -5.1 2.39 -4.12 1.56 C-2 0 -2 0 0 0 Z " fill="#FE7C00" transform="translate(66,36)"/>
<path d="M0 0 C1.62 2.2 1.62 2.2 3 5 C3.73 6.31 3.73 6.31 4.46 7.65 C5.48 9.52 6.49 11.4 7.5 13.27 C8.76 15.56 10.08 17.78 11.44 20 C11.95 20.99 12.47 21.98 13 23 C12.5 24.48 12.5 24.48 12 26 C11.26 25.52 10.53 25.04 9.77 24.54 C8.31 23.59 8.31 23.59 6.81 22.62 C5.85 22 4.89 21.37 3.89 20.73 C1.29 19.17 -1.17 18.06 -4 17 C-5.27 16.38 -6.54 15.75 -7.81 15.12 C-12.92 12.8 -18.23 11.6 -23.68 10.4 C-25.47 9.99 -27.24 9.5 -29 9 C-29.33 8.34 -29.66 7.68 -30 7 C-28.02 6.34 -26.04 5.68 -24 5 C-24 4.34 -24 3.68 -24 3 C-6.41 -1.7 -6.41 -1.7 0 0 Z " fill="#0762AE" transform="translate(83,68)"/>
<path d="" fill="#FF7100" transform="translate(0,0)"/>
<path d="" fill="#000000" transform="translate(0,0)"/>
<path d="" fill="#0000FF" transform="translate(0,0)"/>
<path d="" fill="#FF0000" transform="translate(0,0)"/>
<path d="" fill="#0000FF" transform="translate(0,0)"/>
<path d="" fill="#FF0000" transform="translate(0,0)"/>
<path d="" fill="#000000" transform="translate(0,0)"/>
</svg>
